inDegrees=no
num_controls=7
num_derivatives=13
num_iterations=105
num_multipliers=7
num_parameters=0
num_slacks=7
num_states=26
objective=0.497163
objective_accelerations=0.032843
objective_balance=0.003353
objective_effort=0.035310
objective_height=0.420101
objective_ligament=0.005556
solver_duration=1197.666169
status=Solve_Succeeded
success=true
DataType=double
version=3
OpenSimVersion=4.5
endheader
time	/jointset/ground_pelvis/pelvis_tilt/value	/jointset/ground_pelvis/pelvis_tx/value	/jointset/ground_pelvis/pelvis_ty/value	/jointset/hip_r/hip_flexion_r/value	/jointset/hip_r/hip_adduction_r/value	/jointset/hip_r/hip_rotation_r/value	/jointset/back/lumbar_extension/value	/jointset/patellofemoral_r/patellar_flexion_r/value	/jointset/knee_r/knee_flexion_r/value	/jointset/knee_r/knee_adduction_r/value	/jointset/knee_r/knee_rotation_r/value	/jointset/ankle_r/ankle_angle_r/value	/jointset/subtalar_r/subtalar_angle_r/value	/jointset/ground_pelvis/pelvis_tilt/speed	/jointset/ground_pelvis/pelvis_tx/speed	/jointset/ground_pelvis/pelvis_ty/speed	/jointset/hip_r/hip_flexion_r/speed	/jointset/hip_r/hip_adduction_r/speed	/jointset/hip_r/hip_rotation_r/speed	/jointset/back/lumbar_extension/speed	/jointset/patellofemoral_r/patellar_flexion_r/speed	/jointset/knee_r/knee_flexion_r/speed	/jointset/knee_r/knee_adduction_r/speed	/jointset/knee_r/knee_rotation_r/speed	/jointset/ankle_r/ankle_angle_r/speed	/jointset/subtalar_r/subtalar_angle_r/speed	/forceset/tau_hip_flexion_r	/forceset/tau_hip_adduction_r	/forceset/tau_hip_rotation_r	/forceset/tau_knee_flexion_r	/forceset/tau_ankle_angle_r	/forceset/tau_subtalar_angle_r	/forceset/tau_lumbar_extension	lambda_cid13_p0	lambda_cid14_p0	lambda_cid14_p1	lambda_cid14_p2	lambda_cid14_p3	lambda_cid14_p4	lambda_cid14_p5	/jointset/ground_pelvis/pelvis_tilt/accel	/jointset/ground_pelvis/pelvis_tx/accel	/jointset/ground_pelvis/pelvis_ty/accel	/jointset/hip_r/hip_flexion_r/accel	/jointset/hip_r/hip_adduction_r/accel	/jointset/hip_r/hip_rotation_r/accel	/jointset/back/lumbar_extension/accel	/jointset/patellofemoral_r/patellar_flexion_r/accel	/jointset/knee_r/knee_flexion_r/accel	/jointset/knee_r/knee_adduction_r/accel	/jointset/knee_r/knee_rotation_r/accel	/jointset/ankle_r/ankle_angle_r/accel	/jointset/subtalar_r/subtalar_angle_r/accel	gamma_cid13_p0	gamma_cid14_p0	gamma_cid14_p1	gamma_cid14_p2	gamma_cid14_p3	gamma_cid14_p4	gamma_cid14_p5
0	-0.006501838348907739	0.09625453079340097	0.9427242306405287	0.1762555222360518	-0.2321536809079183	-0.2615515648278012	-0.038598046466844	0.07317863873448766	0.07317863873451017	0.1745278127085494	0.1744470735999569	0.03247278518263602	-0.003454247306521218	0	0	0	0	0	0	0	0	0	0	0	0	0	0.207767468921881	-0.1426705850465212	-0.04072150706108098	-0.3830270625537636	0.3737110493547355	-0.1504935924606754	-0.1075076671822355	-39.07367736404727	70.05285227472667	-43.22865837762778	-3.9163604901528	-27.84954718171938	-679.5615672652838	47.75114153592527	-1.25478242738735	-0.9723227406422063	-0.4894246656798876	7.490844242263837	0.2505530061326598	2.272976282920223	-4.820847222303811	8.388602953010807	8.388602953012043	-2.772607167517482	0.09401250873988652	2.959981757765956	0.9302999262872876	8.92290377652822e-08	6.280906438627904e-08	-5.645362734372226e-07	1.859109448985813e-07	1.650083405398966e-08	5.437438216361765e-08	-2.77346670288899e-07
0.01	-0.006559912639705501	0.0962094392135637	0.9427008176118064	0.1766152702410035	-0.232140220422266	-0.2614297417785365	-0.03883935106381197	0.07358659767280047	0.07358659767280723	0.1743895251368439	0.1744405357873129	0.03262100360887375	-0.003406789747325607	-0.01163844859297352	-0.008691297497782365	-0.004667849823851189	0.07137621461960281	0.002611463813555981	0.02425005478909116	-0.04779419183990799	0.08128278239301287	0.08128278239298688	-0.02739178660777876	-0.001264915923156361	0.02987254334908389	0.009461149841437439	0.2126380298576536	-0.1615312955073249	-0.04280495117153044	-0.3988116282062226	0.3987153506139626	-0.1412830029892059	-0.1097176674116963	-39.08718051204206	78.52082097149783	-37.84905453228332	-4.656098129127571	-36.63876247266742	-680.4406094600409	59.47726496887392	-1.121909904775771	-0.7684771815498965	-0.4532408778364805	6.875007520282835	0.2542890744769419	2.483881699228643	-4.688696033267731	7.951747246438276	7.951747246434368	-2.68267528424747	-0.2302930545502385	3.035236327994663	0.9494003020339554	1.191422740104271e-07	6.276906309745967e-08	-7.758024877635978e-07	1.833120899740543e-07	4.919989888085367e-08	-9.813372619944214e-08	-3.48450422859145e-07
0.02	-0.006735078182301066	0.09608724587331001	0.9426311709374257	0.1776715798818737	-0.2321030760973789	-0.2610688458569207	-0.03954459575285996	0.07479811070780483	0.07479811070780423	0.1739852775237341	0.1744226389331929	0.03307481660950701	-0.003265645131923074	-0.02341825036700078	-0.01542035208329019	-0.0092467291316593	0.1393123271781876	0.004736767847505916	0.04781457447118417	-0.09278801841726372	0.160710819345697	0.1607108193456691	-0.05319200828913377	-0.002271808314593707	0.06111891487878178	0.01873741124135685	0.2175085907934171	-0.1803920059681213	-0.04488839528167004	-0.4145961938587446	0.4237196518731779	-0.1320724135177363	-0.1119276676411588	-39.12704894318865	87.06378227512417	-32.48003319641612	-5.367060519822846	-45.59833149023788	-680.1770652547524	70.97247522721838	-1.283053063598895	-0.5798741581865192	-0.4716305624712969	6.802823830060102	0.1533210502114158	2.135869261520654	-4.260774169793853	8.017653864944952	8.017653864950988	-2.454294182232624	0.1456172150836376	3.234747393889611	0.8933222379838435	1.490555102555721e-07	6.272906180864028e-08	-9.870687020899731e-07	1.807132350495273e-07	8.189896370771769e-08	-2.506418345625019e-07	-4.195541754293909e-07
0.03	-0.007028171934222366	0.09590413043033841	0.9425159123190812	0.1793934680666661	-0.2320469523627419	-0.2604785683416659	-0.04068710073075786	0.07679477980375464	0.07679477980375521	0.1733309917256761	0.1743982902815621	0.03384352117374743	-0.003033470724174343	-0.03512755832061693	-0.02121850426482127	-0.01380890073113076	0.204780572581036	0.006452655895017541	0.07009751421096805	-0.1354182968751762	0.2382587004576155	0.2382587004576242	-0.07746432044094383	-0.002592100460879183	0.09240601549423601	0.02761410875894029	0.2100860008709708	-0.1902228706680942	-0.04258133410713954	-0.4036855071487457	0.4038568609366581	-0.1158268458106139	-0.1062888823802989	-39.19237197827176	81.31438175818504	-26.53663178805677	-6.194243468043975	-41.82813009833242	-679.7543881257749	81.68621002091656	-1.10391276230018	-0.582134397250344	-0.4491471323914206	6.376124577433929	0.1753113699317524	2.253046949215647	-4.219952642132872	7.568680394371264	7.568680394373068	-2.383711061315937	-0.1199110222168215	3.043324132432744	0.8722035380544447	1.716476270570356e-07	7.092574463074395e-08	-1.1257771029606e-06	2.280846722716333e-07	9.681219039685396e-08	-3.361568033253945e-07	-5.084080322737511e-07
0.04	-0.007436167385854731	0.09566256373573069	0.9423549046500005	0.1817614986419223	-0.2319747520100509	-0.259669753305217	-0.04224706808489796	0.0795559927428138	0.07955599274281278	0.1724399805402077	0.1743709269899764	0.03491862329155556	-0.002715057335367636	-0.04639859031663394	-0.0271106024105166	-0.01839653927890147	0.2685408052653573	0.007952091458957575	0.09152207871108745	-0.1762804936669102	0.3136195879717734	0.3136195879717925	-0.1005370857791849	-0.002874736316456441	0.1223984255920775	0.035985207452881	0.2026634109485205	-0.2000537353680576	-0.04027427293243258	-0.3927748204387831	0.3839940700001329	-0.09958127810348549	-0.1006500971194394	-39.28200223817399	75.63404809960984	-20.59226540616498	-7.008868473410275	-38.23430940214734	-678.3099348075766	92.21269362553799	-1.195397872079807	-0.598663351018639	-0.4767239521311696	6.461221286354589	0.1100305534970811	1.964194213587796	-3.907157836558606	7.580255145392721	7.580255145393528	-2.214384819518757	0.1531484732252468	2.975809290367863	0.7922024732554693	1.940887929421346e-07	7.929225599121718e-08	-1.262989466440387e-06	2.764864247957318e-07	1.113586987738721e-07	-4.20290470240861e-07	-5.976278706495363e-07
